<svg xmlns="http://www.w3.org/2000/svg" width="18" height="11.303" viewBox="0 0 18 11.303"><path d="M32.092,27.082l-3.256-2.677a.508.508,0,0,0-.122-.076h0a.508.508,0,0,0-.168-.036H26.388V21.348a.508.508,0,0,0-.508-.508H14.788a.508.508,0,0,0-.508.508v8.807a.508.508,0,0,0,.508.508h1.686a2.032,2.032,0,0,0,3.911,0h6.247a2.032,2.032,0,0,0,3.911,0h1.229a.508.508,0,0,0,.508-.508V27.473A.508.508,0,0,0,32.092,27.082ZM28.029,25.3v1.417h-1.64V25.3Zm-12.7-3.449H25.372v7.791H20.4a2,2,0,0,0-.076-.218.107.107,0,0,0-.03-.086,2.032,2.032,0,0,0-.173-.32l-.056-.071a2.032,2.032,0,0,0-.173-.208l-.1-.086a2.032,2.032,0,0,0-.183-.147l-.117-.076a2.031,2.031,0,0,0-.2-.112l-.127-.056a2.031,2.031,0,0,0-.244-.076l-.117-.03a1.9,1.9,0,0,0-.762,0l-.117.03a2.031,2.031,0,0,0-.244.076l-.127.056a2.032,2.032,0,0,0-.208.112l-.112.076a2.032,2.032,0,0,0-.188.152l-.091.081a2.032,2.032,0,0,0-.188.229l-.041.051a2.032,2.032,0,0,0-.178.325.125.125,0,0,1-.025.076,2.032,2.032,0,0,0-.076.223H15.3Zm3.134,9.3a1.062,1.062,0,1,0-.036,0Zm10.158,0a1.062,1.062,0,1,0-.036,0ZM31.3,29.637h-.742a2,2,0,0,0-.076-.218.107.107,0,0,0-.03-.086,2.032,2.032,0,0,0-.173-.32l-.056-.071a2.032,2.032,0,0,0-.173-.208l-.1-.086a2.033,2.033,0,0,0-.183-.147l-.117-.076a2.03,2.03,0,0,0-.2-.112l-.127-.056a2.032,2.032,0,0,0-.244-.076l-.117-.03a1.9,1.9,0,0,0-.762,0l-.117.03a2.032,2.032,0,0,0-.244.076l-.127.056a2.031,2.031,0,0,0-.208.112l-.112.076a2.032,2.032,0,0,0-.188.152l-.091.081a2.032,2.032,0,0,0-.188.229l-.041.051a2.032,2.032,0,0,0-.178.325.125.125,0,0,1-.025.076,2.031,2.031,0,0,0-.076.223h-.229v-1.9h2.128a.508.508,0,0,0,.508-.508V25.873l2.24,1.844Z" transform="translate(-14.28 -20.84)"/></svg>