<svg xmlns="http://www.w3.org/2000/svg" width="18" height="13.006" viewBox="0 0 18 13.006"><g transform="translate(-1.83 -15.17)"><path d="M11.906,15.17H3.417A1.589,1.589,0,0,0,1.83,16.757v8.13a1.589,1.589,0,0,0,1.587,1.587h.84a2.17,2.17,0,0,0,4.238,0h5.6a2.17,2.17,0,0,0,4.238,0H19.83V21.793a2.525,2.525,0,0,0-.34-1.266l-.934-1.615a1.967,1.967,0,0,0-1.709-.971H13.486V16.763A1.589,1.589,0,0,0,11.906,15.17ZM2.764,24.887v-8.13a.654.654,0,0,1,.654-.654h8.488a.654.654,0,0,1,.654.654v8.778H8.5a2.17,2.17,0,0,0-4.238,0h-.84a.654.654,0,0,1-.656-.648Zm3.614,2.359A1.238,1.238,0,1,1,7.616,26.01a1.238,1.238,0,0,1-1.238,1.236Zm9.84,0a1.238,1.238,0,1,1,1.238-1.238,1.238,1.238,0,0,1-1.238,1.238Zm2.12-1.705a2.17,2.17,0,0,0-4.238,0h-.607V21.729h5.392v3.812Zm-1.49-6.667a1.031,1.031,0,0,1,.889.506l.822,1.416H13.493V18.873Z"/><path d="M19.668,31.8A3.139,3.139,0,1,0,16.53,28.66,3.139,3.139,0,0,0,19.668,31.8Zm0-5.343a2.206,2.206,0,1,1-2.2,2.2A2.206,2.206,0,0,1,19.668,26.456Z" transform="translate(-11.955 -8.417)"/><path d="M31.147,35.86h.96a.467.467,0,0,0,0-.934h-.493v-.769a.467.467,0,0,0-.934,0v1.234a.467.467,0,0,0,.467.469Z" transform="translate(-23.462 -15.061)"/></g></svg>